<?xml version="1.0" encoding="UTF-8" standalone="no"?>
<!DOCTYPE svg PUBLIC "-//W3C//DTD SVG 1.1//EN" "http://www.w3.org/Graphics/SVG/1.1/DTD/svg11.dtd">
<svg width="100%" height="100%" viewBox="0 0 26 26" version="1.1" xmlns="http://www.w3.org/2000/svg" xmlns:xlink="http://www.w3.org/1999/xlink" xml:space="preserve" xmlns:serif="http://www.serif.com/" style="fill-rule:evenodd;clip-rule:evenodd;stroke-linejoin:round;stroke-miterlimit:2;">
    <g transform="matrix(-1.16667,-3.23815e-17,-3.23815e-17,1.16667,20.8544,4.27217)">
        <path d="M6.732,1.481C3.421,1.481 0.732,4.17 0.732,7.481C0.732,10.792 3.421,13.481 6.732,13.481C10.043,13.481 12.732,10.792 12.732,7.481C12.732,4.17 10.043,1.481 6.732,1.481ZM6.732,3.195C9.097,3.195 11.018,5.116 11.018,7.481C11.018,9.846 9.097,11.767 6.732,11.767C4.367,11.767 2.446,9.846 2.446,7.481C2.446,5.116 4.367,3.195 6.732,3.195Z" style="fill:white;"/>
    </g>
</svg>
