<svg width="24" height="24" viewBox="0 0 24 24" fill="none" xmlns="http://www.w3.org/2000/svg">
<path d="M12.75 8.25L11.9134 6.57669C11.6725 6.0951 11.5522 5.8543 11.3725 5.67837C11.2137 5.5228 11.0222 5.40448 10.8121 5.33198C10.5744 5.25 10.3052 5.25 9.76672 5.25H6.9C6.05992 5.25 5.63988 5.25 5.31902 5.41349C5.03677 5.5573 4.8073 5.78677 4.66349 6.06902C4.5 6.38988 4.5 6.80992 4.5 7.65V8.25M4.5 8.25H15.9C17.1602 8.25 17.7901 8.25 18.2715 8.49524C18.6949 8.71095 19.0391 9.05516 19.2548 9.47852C19.5 9.95982 19.5 10.5899 19.5 11.85V15.15C19.5 16.4102 19.5 17.0402 19.2548 17.5215C19.0391 17.9449 18.6949 18.2891 18.2715 18.5048C17.7901 18.75 17.1602 18.75 15.9 18.75H8.1C6.83988 18.75 6.20982 18.75 5.72852 18.5048C5.30516 18.2891 4.96095 17.9449 4.74524 17.5215C4.5 17.0402 4.5 16.4102 4.5 15.15V8.25ZM9.75 13.5L12 15.75M12 15.75L14.25 13.5M12 15.75V11.25" stroke="white" stroke-width="2" stroke-linecap="round" stroke-linejoin="round"/>
</svg>
