<svg width="24" height="24" viewBox="0 0 24 24" fill="none" xmlns="http://www.w3.org/2000/svg">
<g opacity="0.8">
<path d="M14.2105 9.89474L16.1053 11.7895M16.1053 11.7895L18 9.89474M16.1053 11.7895V6M12 6.63158H9.03158C7.97043 6.63158 7.43985 6.63158 7.03455 6.83809C6.67803 7.01975 6.38817 7.3096 6.20651 7.66612C6 8.07143 6 8.602 6 9.66316V14.9684C6 16.0296 6 16.5601 6.20651 16.9655C6.38817 17.322 6.67803 17.6118 7.03455 17.7935C7.43985 18 7.97043 18 9.03158 18H14.8421C15.4295 18 15.7232 18 15.9641 17.9355C16.6179 17.7603 17.1287 17.2495 17.3039 16.5957C17.3684 16.3547 17.3684 16.0611 17.3684 15.4737" stroke="white" stroke-width="2" stroke-linecap="round" stroke-linejoin="round"/>
</g>
</svg>
