<svg width="24" height="24" viewBox="0 0 24 24" fill="none" xmlns="http://www.w3.org/2000/svg">
<path d="M16.6647 7.39334C16.6647 6.75517 16.6647 6.43608 16.5316 6.26019C16.4157 6.10696 16.2385 6.01214 16.0467 6.00068C15.8266 5.98753 15.5611 6.16454 15.0301 6.51853L8.12007 11.1252C7.68131 11.4177 7.46197 11.5639 7.38554 11.7483C7.31865 11.9095 7.31865 12.0906 7.38554 12.2517C7.46197 12.4361 7.68131 12.5823 8.12007 12.8748L15.0301 17.4814C15.5611 17.8354 15.8266 18.0125 16.0467 17.9993C16.2385 17.9879 16.4157 17.8931 16.5316 17.7398C16.6647 17.5639 16.6647 17.2448 16.6647 16.6067V7.39334Z" fill="white"/>
</svg>
