<svg width="24" height="24" viewBox="0 0 24 24" fill="none" xmlns="http://www.w3.org/2000/svg">
<path d="M12.7328 13.0709L7.72815 17.0746L7.72782 17.0749C7.01475 17.6453 6.65817 17.9306 6.35807 17.9309C6.09703 17.9312 5.8501 17.8124 5.68725 17.6084C5.5 17.3738 5.5 16.9172 5.5 16.0037V7.99627C5.5 7.08281 5.5 6.62608 5.68725 6.3915C5.8501 6.18749 6.09703 6.06881 6.35807 6.06909C6.65821 6.06941 7.01486 6.35473 7.72815 6.92536L12.7328 10.9291L12.7332 10.9294C13.1905 11.2953 13.4192 11.4782 13.502 11.6993C13.5746 11.8932 13.5746 12.1068 13.502 12.3007C13.4192 12.5217 13.1905 12.7047 12.7332 13.0706L12.7328 13.0709Z" fill="white"/>
<path d="M17.5 7L17.5 17" stroke="white" stroke-width="2" stroke-linecap="round" stroke-linejoin="round"/>
</svg>
