<svg width="24" height="24" viewBox="0 0 24 24" fill="none" xmlns="http://www.w3.org/2000/svg">
<path d="M10.2672 13.0709L15.2718 17.0746L15.2722 17.0749C15.9852 17.6453 16.3418 17.9306 16.6419 17.9309C16.903 17.9312 17.1499 17.8124 17.3127 17.6084C17.5 17.3738 17.5 16.9172 17.5 16.0037V7.99627C17.5 7.08281 17.5 6.62608 17.3127 6.3915C17.1499 6.18749 16.903 6.06881 16.6419 6.06909C16.3418 6.06941 15.9851 6.35473 15.2718 6.92536L10.2672 10.9291L10.2668 10.9294C9.8095 11.2953 9.58083 11.4782 9.49797 11.6993C9.42537 11.8932 9.42537 12.1068 9.49797 12.3007C9.58083 12.5217 9.8095 12.7047 10.2668 13.0706L10.2672 13.0709Z" fill="white"/>
<path d="M5.5 7L5.5 17" stroke="white" stroke-width="2" stroke-linecap="round" stroke-linejoin="round"/>
</svg>
