<svg width="24" height="24" viewBox="0 0 24 24" fill="none" xmlns="http://www.w3.org/2000/svg">
<path d="M11.4 6L13.2 7.8M13.2 7.8L11.4 9.6M13.2 7.8H8.88C7.8719 7.8 7.36786 7.8 6.98282 7.99619C6.64412 8.16876 6.36876 8.44412 6.19619 8.78282C6 9.16786 6 9.6719 6 10.68V14.1C6 14.3786 6 14.518 6.0154 14.635C6.12174 15.4427 6.75733 16.0783 7.56505 16.1846M10.8 16.2H15.12C16.1281 16.2 16.6321 16.2 17.0172 16.0038C17.3559 15.8312 17.6312 15.5559 17.8038 15.2172C18 14.8321 18 14.3281 18 13.32V9.9C18 9.62135 18 9.48202 17.9846 9.36505C17.8783 8.55733 17.2427 7.92174 16.435 7.8154M10.8 16.2L12.6 18M10.8 16.2L12.6 14.4" stroke="white" stroke-width="2" stroke-linecap="round" stroke-linejoin="round"/>
</svg>
