<svg width="24" height="24" viewBox="0 0 24 24" fill="none" xmlns="http://www.w3.org/2000/svg">
<path d="M7.33533 7.39334C7.33533 6.75517 7.33533 6.43608 7.46839 6.26019C7.5843 6.10696 7.76148 6.01214 7.95328 6.00068C8.17344 5.98753 8.43893 6.16454 8.96993 6.51853L15.8799 11.1252C16.3187 11.4177 16.538 11.5639 16.6145 11.7483C16.6814 11.9095 16.6814 12.0906 16.6145 12.2517C16.538 12.4361 16.3187 12.5823 15.8799 12.8748L8.96993 17.4814C8.43893 17.8354 8.17344 18.0125 7.95328 17.9993C7.76148 17.9879 7.5843 17.8931 7.46839 17.7398C7.33533 17.5639 7.33533 17.2448 7.33533 16.6067V7.39334Z" fill="white"/>
</svg>
