<svg width="24" height="24" viewBox="0 0 24 24" fill="none" xmlns="http://www.w3.org/2000/svg">
<path d="M5.2 20H18.8C19.9201 20 20.4802 20 20.908 19.782C21.2843 19.5903 21.5903 19.2843 21.782 18.908C22 18.4802 22 17.9201 22 16.8V9.2C22 8.07989 22 7.51984 21.782 7.09202C21.5903 6.71569 21.2843 6.40973 20.908 6.21799C20.4802 6 19.9201 6 18.8 6H15H5.2C4.07989 6 3.51984 6 3.09202 6.21799C2.71569 6.40973 2.40973 6.71569 2.21799 7.09202C2 7.51984 2 8.07989 2 9.2V16.8C2 17.9201 2 18.4802 2.21799 18.908C2.40973 19.2843 2.71569 19.5903 3.09202 19.782C3.51984 20 4.0799 20 5.2 20Z" stroke="white" stroke-width="2" stroke-linecap="round" stroke-linejoin="round"/>
<line x1="8" y1="5" x2="8" y2="20" stroke="white" stroke-width="2"/>
</svg>
