<?xml version="1.0" encoding="UTF-8" standalone="no"?>
<!DOCTYPE svg PUBLIC "-//W3C//DTD SVG 1.1//EN" "http://www.w3.org/Graphics/SVG/1.1/DTD/svg11.dtd">
<svg width="100%" height="100%" viewBox="0 0 24 24" version="1.1" xmlns="http://www.w3.org/2000/svg" xmlns:xlink="http://www.w3.org/1999/xlink" xml:space="preserve" xmlns:serif="http://www.serif.com/" style="fill-rule:evenodd;clip-rule:evenodd;stroke-linecap:round;stroke-linejoin:round;">
    <g transform="matrix(0.834595,0,0,0.834595,1.98487,1.80532)">
        <path d="M11.283,3.453C11.513,2.986 11.628,2.753 11.785,2.678C11.921,2.613 12.079,2.613 12.215,2.678C12.372,2.753 12.487,2.986 12.717,3.453L14.904,7.883C14.972,8.021 15.006,8.09 15.056,8.144C15.1,8.191 15.153,8.229 15.211,8.257C15.278,8.287 15.354,8.299 15.506,8.321L20.397,9.036C20.912,9.111 21.17,9.149 21.289,9.274C21.392,9.384 21.441,9.534 21.422,9.684C21.399,9.856 21.212,10.037 20.84,10.4L17.301,13.846C17.191,13.954 17.136,14.008 17.1,14.072C17.069,14.128 17.049,14.19 17.041,14.255C17.032,14.327 17.045,14.403 17.071,14.555L17.906,19.422C17.994,19.936 18.038,20.192 17.955,20.345C17.883,20.477 17.755,20.57 17.607,20.598C17.437,20.629 17.206,20.508 16.745,20.265L12.372,17.966C12.236,17.894 12.168,17.858 12.096,17.844C12.033,17.832 11.967,17.832 11.904,17.844C11.832,17.858 11.764,17.894 11.628,17.966L7.255,20.265C6.794,20.508 6.563,20.629 6.393,20.598C6.245,20.57 6.117,20.477 6.045,20.345C5.962,20.192 6.006,19.936 6.094,19.422L6.929,14.555C6.955,14.403 6.968,14.327 6.959,14.255C6.951,14.19 6.931,14.128 6.9,14.072C6.864,14.008 6.809,13.954 6.699,13.846L3.161,10.4C2.788,10.037 2.601,9.856 2.579,9.684C2.559,9.534 2.608,9.384 2.711,9.274C2.83,9.149 3.088,9.111 3.603,9.036L8.494,8.321C8.646,8.299 8.722,8.287 8.789,8.257C8.847,8.229 8.9,8.191 8.944,8.144C8.994,8.09 9.028,8.021 9.096,7.883L11.283,3.453Z" style="fill:none;fill-rule:nonzero;stroke:white;stroke-width:2px;"/>
    </g>
</svg>
