<svg width="24" height="24" viewBox="0 0 24 24" fill="none" xmlns="http://www.w3.org/2000/svg">
<path d="M14.4 8.4V7.92C14.4 7.24794 14.4 6.9119 14.2692 6.65521C14.1542 6.42941 13.9706 6.24584 13.7448 6.13079C13.4881 6 13.152 6 12.48 6H11.52C10.8479 6 10.5119 6 10.2552 6.13079C10.0294 6.24584 9.84581 6.42941 9.73077 6.65521C9.59998 6.9119 9.59998 7.24794 9.59998 7.92V8.4M10.8 11.7V14.7M13.2 11.7V14.7M6.59998 8.4H17.4M16.2 8.4V15.12C16.2 16.1281 16.2 16.6321 16.0038 17.0172C15.8312 17.3559 15.5559 17.6312 15.2172 17.8038C14.8321 18 14.3281 18 13.32 18H10.68C9.67188 18 9.16783 18 8.78279 17.8038C8.4441 17.6312 8.16874 17.3559 7.99616 17.0172C7.79998 16.6321 7.79998 16.1281 7.79998 15.12V8.4" stroke="white" stroke-width="2" stroke-linecap="round" stroke-linejoin="round"/>
</svg>
